<svg width="16" height="16" viewBox="0 0 16 16" xmlns="http://www.w3.org/2000/svg">
  <g transform="translate(8,8) scale(0.3) translate(-64,-40.5)">
    <path d="M46.9088 28.9459C51.3376 27.953 60.1282 27.4632 64.9944 27.4632C70.0742 27.4632 76.8141 27.7589 82.1082 28.9459C84.3602 29.4509 85.5656 30.2889 86.1198 31.36C86.6598 32.4035 86.503 33.5421 86.3807 34.4059C85.8943 37.8408 85.2139 41.96 84.4378 46.6582L84.4355 46.6722C84.0301 49.1261 83.0062 50.8363 81.6579 51.93C80.3146 53.0196 78.6911 53.4632 77.1404 53.4632H50.9049C48.8775 53.4632 47.305 52.9509 46.1663 52.0723C45.0259 51.1924 44.3619 49.9767 44.0986 48.6487C43.5914 46.0902 42.8567 42.0089 42.0317 37.4263C41.9121 36.762 41.7906 36.0871 41.6677 35.4049C41.2523 33.1002 41.6171 31.607 42.693 30.6209C43.2096 30.1476 43.8565 29.8246 44.5646 29.5736C45.2717 29.323 46.0719 29.1336 46.9088 28.9459Z"
          fill="none" stroke="#000000" stroke-width="2.8"/>
    <circle cx="64" cy="40.5" r="4" fill="none" stroke="#000000" stroke-width="2.5"/>
  </g>
</svg>
